<?xml version="1.0" encoding="utf-8"?>
<!-- Generator: Adobe Illustrator 23.0.6, SVG Export Plug-In . SVG Version: 6.00 Build 0)  -->
<svg version="1.1" id="Ebene_1" xmlns="http://www.w3.org/2000/svg" xmlns:xlink="http://www.w3.org/1999/xlink" x="0px" y="0px"
	 viewBox="0 0 512 512" style="enable-background:new 0 0 512 512;" xml:space="preserve">
<style type="text/css">
	.st0{fill:#739793;}
	.st1{fill:#015249;}
	.st2{fill:#557571;}
</style>
<path class="st0" d="M352.9,68.4l-53.1,185.4l24.3,16.2l-120,242h-75c-8.4,0-15-6.6-15-15V378.6c-19.5-40.5-30-85.2-30-130.2v-41.1
	l-36.3-36c-11.7-11.7-11.7-30.9,0-42.6s30.9-11.7,42.6,0l59.1,59.4L115.3,68.4c-4.5-16.2,4.5-32.7,20.4-37.2
	c16.2-4.5,32.7,4.5,37.2,20.4l31.2,108.9V30c0-11.1,6-20.7,15-25.8c4.5-2.7,9.6-4.2,15-4.2c16.5,0,30,13.5,30,30v130.5l31.2-108.9
	c4.5-15.9,21-24.9,37.2-20.4C348.4,35.7,357.4,52.2,352.9,68.4z"/>
<path class="st1" d="M352.9,68.4l-53.1,185.4l24.3,16.2l-120,242V30c0-11.1,6-20.7,15-25.8c4.5-2.7,9.6-4.2,15-4.2
	c16.5,0,30,13.5,30,30v130.5l31.2-108.9c4.5-15.9,21-24.9,37.2-20.4C348.4,35.7,357.4,52.2,352.9,68.4z"/>
<path class="st2" d="M472.7,248.1c-10.6-22.9-41.3-38.1-73-38.1c-26.8,0-53.2,11.7-73.9,30c0,0-46.1,0-46.1,0
	c-42.7,0-75.7,34.6-75.7,75v197h105c8.4,0,15-6.9,15-15c0-3.2,0-95,0-91.9c0,0,0,0,0-0.1c0.5-30.1,8.7-59.9,23.7-86
	c25.6-44.8,62.5-50.5,88.9-50.5c7.4,0,14.5,0.5,21.4,0.9C469.7,270.3,477.3,258.2,472.7,248.1z"/>
</svg>
