<?xml version="1.0" encoding="utf-8"?>
<!-- Generator: Adobe Illustrator 23.0.6, SVG Export Plug-In . SVG Version: 6.00 Build 0)  -->
<svg version="1.1" id="Ebene_1" xmlns="http://www.w3.org/2000/svg" xmlns:xlink="http://www.w3.org/1999/xlink" x="0px" y="0px"
	 viewBox="0 0 512 512" style="enable-background:new 0 0 512 512;" xml:space="preserve">
<style type="text/css">
	.st0{fill:#015249;}
	.st1{fill:#739793;}
</style>
<path class="st0" d="M512,297.4c0,18.6-15,33.6-33.6,33.6h-30c18.6,0,33.6,15,33.6,33.6c0,18.9-15,34.3-33.6,34.3h-30
	c18.6,0,33.6,14.6,33.6,33.5c0,18.6-15,33.6-33.6,33.6H315.5c-14.7,0-89.4-1.5-124.2-30H15c-8.4,0-15-6.6-15-15V241
	c0-8.4,6.6-15,15-15h167.3C197,223.3,320,169.9,331.1,59.5c0.6-4.8,3.3-9,7.2-11.4c3.9-2.4,9-2.7,13.2-1.2c20.1,7.8,34.5,28.2,39,54
	c5.1,30-3.6,65.7-30,95.1h117.9c18.6,0,33.6,15,33.6,33.6c0,18.9-15,33.9-33.6,33.9C497,263.5,512,278.5,512,297.4z"/>
<path class="st1" d="M448.4,398.9h-30c18.6,0,33.6,14.6,33.6,33.5c0,18.6-15,33.6-33.6,33.6H315.5c-14.7,0-89.4-1.5-124.2-30H15
	c-8.4,0-15-6.6-15-15v-90h448.4c18.6,0,33.6,15,33.6,33.6C482,383.5,467,398.9,448.4,398.9z"/>
</svg>
