<?xml version="1.0" encoding="utf-8"?>
<!-- Generator: Adobe Illustrator 23.0.6, SVG Export Plug-In . SVG Version: 6.00 Build 0)  -->
<svg version="1.1" id="Capa_1" xmlns="http://www.w3.org/2000/svg" xmlns:xlink="http://www.w3.org/1999/xlink" x="0px" y="0px"
	 viewBox="0 0 512 512" style="enable-background:new 0 0 512 512;" xml:space="preserve">
<style type="text/css">
	.st0{fill:#015249;}
</style>
<g>
	<path class="st0" d="M432.4,328.3c43.5-30.7,70-61.2,71.1-62.4l8.5-9.8l-8.5-9.8c-1.1-1.3-27.6-31.7-71.1-62.4
		C374.3,142.7,313.3,121,256,121c-31,0-63,6.4-95.1,18.7L26.6,5.4L5.4,26.6l480,480l21.2-21.2l-126-126
		C398,350.7,415.3,340.3,432.4,328.3L432.4,328.3z M256,181c41.4,0,75,33.6,75,75c0,15.3-4.6,29.5-12.5,41.3l-21.9-21.9
		c2.8-5.9,4.4-12.5,4.4-19.4c0-24.8-20.2-45-45-45c-6.9,0-13.5,1.6-19.4,4.4l-21.9-21.9C226.5,185.6,240.7,181,256,181L256,181z"/>
	<path class="st0" d="M256,331c-41.4,0-75-33.6-75-75c0-3.6,0.3-7.1,0.8-10.6L104,167.7c-8.2,5-16.4,10.3-24.5,16
		c-43.5,30.7-70,61.2-71.1,62.5L0,256l8.5,9.8c1.1,1.3,27.6,31.7,71.1,62.5C137.6,369.3,198.7,391,256,391c20.6,0,41.7-2.8,63-8.3
		l-52.4-52.4C263.1,330.7,259.6,331,256,331z"/>
</g>
</svg>
