<?xml version="1.0" encoding="utf-8"?>
<!-- Generator: Adobe Illustrator 23.0.6, SVG Export Plug-In . SVG Version: 6.00 Build 0)  -->
<svg version="1.1" id="Ebene_1" xmlns="http://www.w3.org/2000/svg" xmlns:xlink="http://www.w3.org/1999/xlink" x="0px" y="0px"
	 viewBox="0 0 512 512" style="enable-background:new 0 0 512 512;" xml:space="preserve">
<style type="text/css">
	.st0{fill:#015249;}
	.st1{fill:#739793;}
</style>
<path class="st0" d="M512,122v360c0,8.4-6.6,15-15,15h-61c-8.4,0-15-6.6-15-15V346.4c-5.1-1.8-22.2-11.7-47.1-11.7
	c-22.2,0-61.8,8.4-74.4,23.4c-9.6,11.4-26.4,11.4-36.3,1.5c-4.8-4.8-7.2-10.8-7.2-17.4c0-3.6,0.9-7.5,2.7-11.1
	c2.1-3,48.9-67.5,114.3-92.1c66.9-24.9,62.1-86.7,63-89.7c0-30.9-25.2-54.6-54.3-54.6c-12.6,0-33.6,3.6-65.7,12.3v30
	c0,26.7-17.4,49.2-41.4,57c-9.3,3-18.6-4.8-18.6-14.4c0,9.6-9.3,17.4-18.6,14.4c-24-7.8-41.4-30.3-41.4-57v-30
	c-32.1-8.7-53.1-12.3-65.7-12.3c-29.1,0-54.3,23.7-54.3,54.6c0.9,3-3.9,64.8,63,89.7c65.4,24.6,112.2,89.1,114.3,92.1
	c1.8,3.6,2.7,7.5,2.7,11.1c0,6.6-2.4,12.6-7.2,17.4c-9.9,9.9-26.7,9.9-36.3-1.5c-12.6-15-52.2-23.4-74.4-23.4
	c-24.9,0-42,9.9-47.1,11.7V482c0,8.4-6.6,15-15,15H15c-8.4,0-15-6.6-15-15V122c0-9.3,4.5-18.3,12-24l95.8-75
	c8.4-6.3,18.9-7.5,28.5-4.2l99.9,35.7h0.3v0.3C248.2,59,256,70.4,256,82.7c0-12.3,7.8-23.7,19.5-27.9v-0.3h0.3l99.9-35.7
	c9.6-3.3,20.1-2.1,28.5,4.2L500,98C507.5,103.7,512,112.7,512,122z"/>
<path class="st1" d="M512,122v360c0,8.4-6.6,15-15,15h-61c-8.4,0-15-6.6-15-15V346.4c-5.1-1.8-22.2-11.7-47.1-11.7
	c-22.2,0-61.8,8.4-74.4,23.4c-9.6,11.4-26.4,11.4-36.3,1.5c-4.8-4.8-7.2-10.8-7.2-17.4c0-3.6,0.9-7.5,2.7-11.1
	c2.1-3,48.9-67.5,114.3-92.1c66.9-24.9,62.1-86.7,63-89.7c0-30.9-25.2-54.6-54.3-54.6c-12.6,0-33.6,3.6-65.7,12.3v30
	c0,26.7-17.4,49.2-41.4,57c-9.3,3-18.6-4.8-18.6-14.4V82.7c0-12.3,7.8-23.7,19.5-27.9v-0.3h0.3l99.9-35.7c9.6-3.3,20.1-2.1,28.5,4.2
	L500,98C507.5,103.7,512,112.7,512,122z"/>
</svg>
